HIERARCHY
ROOT Hips
{
	OFFSET 0.000000 71.427986 0.000000
	CHANNELS 6 Xposition Yposition Zposition Xrotation Yrotation Zrotation
	JOINT Pelvis
	{
		OFFSET 0.000000 0.000000 0.000000
		CHANNELS 3 Xrotation Yrotation Zrotation
		JOINT LeftUpLeg
		{
			OFFSET 6.797100 -2.508499 -1.318700
			CHANNELS 3 Xrotation Yrotation Zrotation
			JOINT LeftLeg
			{
				OFFSET 0.069008 -29.241863 0.690200
				CHANNELS 3 Xrotation Yrotation Zrotation
				JOINT LeftFoot
				{
					OFFSET -0.069008 -29.568123 -0.266800
					CHANNELS 3 Xrotation Yrotation Zrotation
					JOINT LeftToeBase
					{
						OFFSET 3.145500 -8.631000 16.059900
						CHANNELS 3 Xrotation Yrotation Zrotation
						End Site
						{
							OFFSET 0.000000 18.501587 0.000000
						}
					}
				}
			}
			JOINT Left_ShortSleeve
			{
				OFFSET 0.265923 -10.480953 1.153800
				CHANNELS 3 Xrotation Yrotation Zrotation
				End Site
				{
					OFFSET 1.725763 19.823879 0.000000
				}
			}
		}
		JOINT RightUpLeg
		{
			OFFSET -6.797100 -2.508499 -1.318700
			CHANNELS 3 Xrotation Yrotation Zrotation
			JOINT RightLeg
			{
				OFFSET -0.082453 -29.241932 0.688000
				CHANNELS 3 Xrotation Yrotation Zrotation
				JOINT RightFoot
				{
					OFFSET 0.082453 -29.568058 -0.264600
					CHANNELS 3 Xrotation Yrotation Zrotation
					JOINT RightToeBase
					{
						OFFSET -3.115300 -8.682800 16.113400
						CHANNELS 3 Xrotation Yrotation Zrotation
						End Site
						{
							OFFSET 0.000000 18.567114 0.000000
						}
					}
				}
			}
			JOINT Right_ShortSleeve
			{
				OFFSET -0.265923 -10.480953 1.153800
				CHANNELS 3 Xrotation Yrotation Zrotation
				End Site
				{
					OFFSET -1.725766 19.823910 0.000000
				}
			}
		}
	}
	JOINT Spine
	{
		OFFSET 0.000000 13.368103 0.470500
		CHANNELS 3 Xrotation Yrotation Zrotation
		JOINT Spine1
		{
			OFFSET 0.147000 13.837402 0.538800
			CHANNELS 3 Xrotation Yrotation Zrotation
			JOINT Spine2
			{
				OFFSET 0.168000 16.242897 -1.435500
				CHANNELS 3 Xrotation Yrotation Zrotation
				JOINT Neck
				{
					OFFSET 0.217200 18.631500 -1.679100
					CHANNELS 3 Xrotation Yrotation Zrotation
					JOINT Head
					{
						OFFSET 0.000000 6.599396 1.385900
						CHANNELS 3 Xrotation Yrotation Zrotation
						JOINT Hat
						{
							OFFSET -0.532200 27.220596 -10.096100
							CHANNELS 3 Xrotation Yrotation Zrotation
							End Site
							{
								OFFSET 0.000000 22.029861 0.000000
							}
						}
						JOINT HairD
						{
							OFFSET -10.777400 17.437393 -1.325900
							CHANNELS 3 Xrotation Yrotation Zrotation
							JOINT HairD1
							{
								OFFSET -3.290299 -11.051193 1.062200
								CHANNELS 3 Xrotation Yrotation Zrotation
								End Site
								{
									OFFSET 0.000000 11.579437 0.000000
								}
							}
						}
						JOINT HairB
						{
							OFFSET -10.777400 17.437393 1.467900
							CHANNELS 3 Xrotation Yrotation Zrotation
							JOINT HairB1
							{
								OFFSET -1.561200 -12.956299 3.590200
								CHANNELS 3 Xrotation Yrotation Zrotation
								End Site
								{
									OFFSET 0.000000 13.534866 0.000000
								}
							}
						}
						JOINT HairA
						{
							OFFSET 9.713100 17.437393 1.467900
							CHANNELS 3 Xrotation Yrotation Zrotation
							JOINT HairA1
							{
								OFFSET 1.561200 -12.956299 3.590200
								CHANNELS 3 Xrotation Yrotation Zrotation
								End Site
								{
									OFFSET 0.000000 13.534866 0.000000
								}
							}
						}
						JOINT HairC
						{
							OFFSET 9.713100 17.437393 -1.325900
							CHANNELS 3 Xrotation Yrotation Zrotation
							JOINT HairC1
							{
								OFFSET 3.290300 -11.051193 1.062200
								CHANNELS 3 Xrotation Yrotation Zrotation
								End Site
								{
									OFFSET 0.000000 11.579437 0.000000
								}
							}
						}
					}
				}
				JOINT LeftShoulder
				{
					OFFSET 5.101800 15.108002 -2.763700
					CHANNELS 3 Xrotation Yrotation Zrotation
					JOINT LeftArm
					{
						OFFSET 9.825497 2.506317 -1.597400
						CHANNELS 3 Xrotation Yrotation Zrotation
						JOINT LeftForeArm
						{
							OFFSET 21.966244 0.000000 0.000000
							CHANNELS 3 Xrotation Yrotation Zrotation
							JOINT LeftHand
							{
								OFFSET 33.879036 0.000000 0.000000
								CHANNELS 3 Xrotation Yrotation Zrotation
								JOINT LeftHandThumb1
								{
									OFFSET 6.715286 -2.359680 3.363841
									CHANNELS 3 Xrotation Yrotation Zrotation
									JOINT LeftHandThumb2
									{
										OFFSET 2.507072 -1.447464 1.447461
										CHANNELS 3 Xrotation Yrotation Zrotation
										JOINT LeftHandThumb3
										{
											OFFSET 2.898338 -1.673355 1.673357
											CHANNELS 3 Xrotation Yrotation Zrotation
											End Site
											{
												OFFSET -0.295959 3.727692 -0.131651
											}
										}
									}
								}
								JOINT LeftHandIndex1
								{
									OFFSET 14.190811 -0.254547 3.840278
									CHANNELS 3 Xrotation Yrotation Zrotation
									JOINT LeftHandIndex2
									{
										OFFSET 3.551727 0.000000 -0.000000
										CHANNELS 3 Xrotation Yrotation Zrotation
										JOINT LeftHandIndex3
										{
											OFFSET 2.894196 0.000000 0.000000
											CHANNELS 3 Xrotation Yrotation Zrotation
											End Site
											{
												OFFSET -1.000603 2.690872 0.366626
											}
										}
									}
								}
								JOINT LeftHandMiddle1
								{
									OFFSET 13.776489 0.000000 0.000000
									CHANNELS 3 Xrotation Yrotation Zrotation
									JOINT LeftHandMiddle2
									{
										OFFSET 3.438232 0.000000 0.000000
										CHANNELS 3 Xrotation Yrotation Zrotation
										JOINT LeftHandMiddle3
										{
											OFFSET 3.691551 0.000000 0.000000
											CHANNELS 3 Xrotation Yrotation Zrotation
											End Site
											{
												OFFSET -1.082298 3.499527 0.457670
											}
										}
									}
								}
								JOINT LeftHandRing1
								{
									OFFSET 13.966164 -0.268127 -3.067488
									CHANNELS 3 Xrotation Yrotation Zrotation
									JOINT LeftHandRing2
									{
										OFFSET 3.162567 0.000000 0.000000
										CHANNELS 3 Xrotation Yrotation Zrotation
										JOINT LeftHandRing3
										{
											OFFSET 3.324348 0.000000 0.000000
											CHANNELS 3 Xrotation Yrotation Zrotation
											End Site
											{
												OFFSET -0.861900 3.184998 0.405154
											}
										}
									}
								}
								JOINT LeftHandPinky1
								{
									OFFSET 13.131393 -0.168503 -5.746925
									CHANNELS 3 Xrotation Yrotation Zrotation
									JOINT LeftHandPinky2
									{
										OFFSET 2.849182 0.000000 0.000000
										CHANNELS 3 Xrotation Yrotation Zrotation
										JOINT LeftHandPinky3
										{
											OFFSET 2.805038 0.000000 0.000000
											CHANNELS 3 Xrotation Yrotation Zrotation
											End Site
											{
												OFFSET -0.882500 2.642609 0.325652
											}
										}
									}
								}
							}
							JOINT Left_Sleeve
							{
								OFFSET 6.592125 -0.646545 0.805568
								CHANNELS 3 Xrotation Yrotation Zrotation
								End Site
								{
									OFFSET -0.000179 20.275787 -0.000000
								}
							}
						}
					}
				}
				JOINT RightShoulder
				{
					OFFSET -5.731700 15.108002 -2.763700
					CHANNELS 3 Xrotation Yrotation Zrotation
					JOINT RightArm
					{
						OFFSET -9.825497 2.506317 -1.597400
						CHANNELS 3 Xrotation Yrotation Zrotation
						JOINT RightForeArm
						{
							OFFSET -21.966242 0.000000 0.000000
							CHANNELS 3 Xrotation Yrotation Zrotation
							JOINT RightHand
							{
								OFFSET -33.879032 0.000000 0.000000
								CHANNELS 3 Xrotation Yrotation Zrotation
								JOINT RightHandThumb1
								{
									OFFSET -6.715286 -2.359680 3.363841
									CHANNELS 3 Xrotation Yrotation Zrotation
									JOINT RightHandThumb2
									{
										OFFSET -2.507072 -1.447464 1.447461
										CHANNELS 3 Xrotation Yrotation Zrotation
										JOINT RightHandThumb3
										{
											OFFSET -2.898338 -1.673355 1.673357
											CHANNELS 3 Xrotation Yrotation Zrotation
											End Site
											{
												OFFSET 0.295959 3.727692 -0.131651
											}
										}
									}
								}
								JOINT RightHandIndex1
								{
									OFFSET -14.190811 -0.254547 3.840278
									CHANNELS 3 Xrotation Yrotation Zrotation
									JOINT RightHandIndex2
									{
										OFFSET -3.551727 0.000000 -0.000000
										CHANNELS 3 Xrotation Yrotation Zrotation
										JOINT RightHandIndex3
										{
											OFFSET -2.894196 0.000000 0.000000
											CHANNELS 3 Xrotation Yrotation Zrotation
											End Site
											{
												OFFSET 1.000603 2.690872 0.366626
											}
										}
									}
								}
								JOINT RightHandMiddle1
								{
									OFFSET -13.776489 0.000000 0.000000
									CHANNELS 3 Xrotation Yrotation Zrotation
									JOINT RightHandMiddle2
									{
										OFFSET -3.438232 0.000000 0.000000
										CHANNELS 3 Xrotation Yrotation Zrotation
										JOINT RightHandMiddle3
										{
											OFFSET -3.691551 0.000000 0.000000
											CHANNELS 3 Xrotation Yrotation Zrotation
											End Site
											{
												OFFSET 1.082298 3.499527 0.457670
											}
										}
									}
								}
								JOINT RightHandRing1
								{
									OFFSET -13.966164 -0.268127 -3.067488
									CHANNELS 3 Xrotation Yrotation Zrotation
									JOINT RightHandRing2
									{
										OFFSET -3.162567 0.000000 0.000000
										CHANNELS 3 Xrotation Yrotation Zrotation
										JOINT RightHandRing3
										{
											OFFSET -3.324348 0.000000 0.000000
											CHANNELS 3 Xrotation Yrotation Zrotation
											End Site
											{
												OFFSET 0.861900 3.184998 0.405154
											}
										}
									}
								}
								JOINT RightHandPinky1
								{
									OFFSET -13.131393 -0.168503 -5.746925
									CHANNELS 3 Xrotation Yrotation Zrotation
									JOINT RightHandPinky2
									{
										OFFSET -2.849182 0.000000 0.000000
										CHANNELS 3 Xrotation Yrotation Zrotation
										JOINT RightHandPinky3
										{
											OFFSET -2.805038 0.000000 0.000000
											CHANNELS 3 Xrotation Yrotation Zrotation
											End Site
											{
												OFFSET 0.882500 2.642609 0.325652
											}
										}
									}
								}
							}
							JOINT Right_Sleeve
							{
								OFFSET -6.592125 -0.646545 0.805568
								CHANNELS 3 Xrotation Yrotation Zrotation
								End Site
								{
									OFFSET 0.000179 20.275787 -0.000000
								}
							}
						}
					}
				}
				JOINT Bind_Right_JacketString
				{
					OFFSET -3.534800 11.969597 7.200700
					CHANNELS 3 Xrotation Yrotation Zrotation
					JOINT Bind_Right_JacketString1
					{
						OFFSET -0.319900 -6.102600 2.794100
						CHANNELS 3 Xrotation Yrotation Zrotation
						End Site
						{
							OFFSET 0.000000 6.719452 0.000000
						}
					}
				}
				JOINT Bind_Left_JacketString
				{
					OFFSET 2.904800 11.969597 7.200700
					CHANNELS 3 Xrotation Yrotation Zrotation
					JOINT Bind_Left_JacketString1
					{
						OFFSET 0.364800 -5.904503 3.186800
						CHANNELS 3 Xrotation Yrotation Zrotation
						End Site
						{
							OFFSET 0.000000 6.719513 0.000000
						}
					}
				}
				JOINT HairE
				{
					OFFSET 5.915200 17.612701 -11.592200
					CHANNELS 3 Xrotation Yrotation Zrotation
					JOINT HairE1
					{
						OFFSET 0.289200 -7.171898 -1.284500
						CHANNELS 3 Xrotation Yrotation Zrotation
						End Site
						{
							OFFSET 0.000000 7.291756 0.000000
						}
					}
				}
				JOINT HairF
				{
					OFFSET -0.864800 17.612701 -11.592200
					CHANNELS 3 Xrotation Yrotation Zrotation
					JOINT HairF1
					{
						OFFSET 0.000000 -14.087097 -2.127501
						CHANNELS 3 Xrotation Yrotation Zrotation
						End Site
						{
							OFFSET 0.000000 14.246841 0.000000
						}
					}
				}
				JOINT HairG
				{
					OFFSET -8.087700 17.612701 -11.592200
					CHANNELS 3 Xrotation Yrotation Zrotation
					JOINT HairG1
					{
						OFFSET -0.293600 -6.081398 -0.910100
						CHANNELS 3 Xrotation Yrotation Zrotation
						End Site
						{
							OFFSET 0.000000 6.156120 0.000000
						}
					}
				}
			}
		}
	}
	JOINT Pouch
	{
		OFFSET 0.000000 4.394501 10.847300
		CHANNELS 3 Xrotation Yrotation Zrotation
		End Site
		{
			OFFSET 0.000000 21.880577 0.000000
		}
	}
	JOINT Bag
	{
		OFFSET -13.229000 4.813004 -0.593300
		CHANNELS 3 Xrotation Yrotation Zrotation
		End Site
		{
			OFFSET 0.000000 21.880577 0.000000
		}
	}
	JOINT OccupyGuyFacialAnim_Joint
	{
		OFFSET 1.000000 -70.206398 -1.655000
		CHANNELS 3 Xrotation Yrotation Zrotation
		End Site
		{
			OFFSET 0.000000 21.880577 0.000000
		}
	}
}
MOTION
Frames: 4
Frame Time: 0.033333
-1.477562 50.519104 -0.613899 46.299301 24.981162 -21.993407 -0.000000 -0.000001 0.000001 -112.056043 -10.416761 -0.751683 103.308442 8.693166 0.427507 -10.011689 0.257298 -3.555816 -0.000000 -0.000003 0.000001 0.000000 0.000001 -0.000001 -95.337133 -15.860504 2.835520 88.900991 -6.337476 -0.097042 -35.876952 2.802278 -12.126660 0.000000 0.000002 -0.000000 0.000001 0.000000 -0.000000 23.210851 2.812991 -0.725932 14.477752 0.203045 -0.237785 13.764991 0.192737 -0.187599 -17.188116 -5.950722 -2.404486 -68.540750 -36.506279 -5.150853 0.000000 -0.000000 0.000000 0.000000 -0.000000 0.000000 0.000000 -0.000000 0.000001 0.000000 -0.000000 0.000000 -0.000000 0.000000 0.000000 0.000000 -0.000000 0.000000 -0.000000 0.000000 0.000000 0.000000 -0.000000 0.000000 0.000000 -0.000000 0.000000 -1.156931 -6.584999 24.274436 -5.962869 -14.026400 -80.292214 -0.582678 -28.043915 -1.332001 -19.075059 -17.071023 -20.936961 -9.331539 3.471364 -7.771923 -3.526408 5.992587 -11.731730 0.000001 0.000001 0.000001 2.950636 -12.213433 7.303421 -0.001882 -0.013098 -14.886860 0.000002 0.000004 0.000002 -0.428351 -3.917222 -6.247955 -0.001110 -0.009771 -15.259802 0.000002 -0.000002 0.000004 3.582743 12.303597 -16.370792 -0.016404 -0.033071 -52.623517 0.000001 0.000002 -0.000001 0.000698 20.812469 -16.406963 -0.017080 -0.031976 -51.783865 0.000003 -0.000001 -0.000001 0.000001 0.000001 -0.000001 1.213501 10.838535 -23.421733 -77.257923 -19.223723 35.422505 -3.020986 68.915181 3.295633 55.419240 21.145475 -46.217687 -4.453606 -7.293482 20.381141 0.000580 -8.684426 0.000691 0.000000 0.000000 -0.000000 -0.000520 -0.006682 -8.932492 -0.000518 0.007236 6.265794 0.000000 0.000003 0.000004 -0.000041 0.002635 3.005853 -0.000330 0.004847 6.344392 0.000001 -0.000003 0.000001 2.546343 -5.987564 23.063916 -0.002734 0.015380 21.773012 -0.000000 0.000000 -0.000002 8.673213 -16.457460 33.264555 -0.008739 0.026278 37.071528 0.000002 -0.000000 -0.000003 -0.000001 0.000000 0.000001 -0.000000 -0.000000 -0.000000 0.000000 -0.000000 -0.000002 -0.000000 -0.000000 -0.000002 -0.000000 -0.000000 -0.000002 -0.000000 -0.000000 -0.000000 0.000000 -0.000000 -0.000002 -0.000000 -0.000000 -0.000002 -0.000000 -0.000000 -0.000002 -0.000000 -0.000000 -0.000000 0.000000 -0.000000 -0.000002 -0.000000 -0.000001 0.000001 -0.000000 -0.000001 0.000001 -0.000000 -0.000001 0.000001 
-2.016432 50.590576 -3.613964 47.076317 25.637772 -23.440620 -0.000001 0.000002 0.000000 -106.746083 -17.643994 -0.555890 107.239892 10.564844 1.601928 -12.208014 1.224685 -8.059703 0.000001 -0.000001 0.000001 0.000002 0.000001 -0.000001 -99.344480 -14.612029 1.488032 87.674678 -6.764309 0.003370 -31.303833 1.798709 -10.806795 0.000000 -0.000000 0.000000 0.000002 0.000001 -0.000000 23.184334 2.239976 -0.277439 14.494747 0.084779 0.045968 13.780088 0.062452 0.095206 -17.769663 -5.991404 -2.351254 -68.184358 -36.246240 -5.134370 -0.000000 -0.000000 -0.000000 -0.000000 -0.000000 -0.000000 -0.000000 -0.000000 -0.000000 -0.000000 -0.000000 -0.000000 -0.000000 -0.000000 -0.000000 -0.000000 -0.000000 -0.000000 -0.000000 -0.000000 -0.000000 -0.000000 -0.000000 -0.000000 -0.000000 -0.000000 -0.000000 -1.153583 -6.660260 24.318074 -5.915733 -14.669030 -80.272802 -0.145778 -27.512301 -1.144607 -19.244198 -16.461325 -21.583249 -9.331538 3.471359 -7.771930 -3.526406 5.992589 -11.731733 0.000003 0.000002 -0.000001 2.950636 -12.213439 7.303420 -0.001883 -0.013103 -14.886863 0.000001 -0.000000 -0.000004 -0.428350 -3.917225 -6.247956 -0.001108 -0.009775 -15.259799 0.000004 -0.000002 -0.000001 3.582743 12.303595 -16.370794 -0.016405 -0.033070 -52.623510 0.000003 0.000001 -0.000002 0.000698 20.812466 -16.406965 -0.017075 -0.031975 -51.783858 -0.000002 0.000001 -0.000001 -0.000001 0.000002 -0.000000 1.188174 10.794428 -23.206536 -77.430221 -18.939133 35.626175 -2.197386 68.366833 2.418160 55.556199 21.289889 -46.385809 -4.453604 -7.293488 20.381143 0.000582 -8.684426 0.000691 0.000000 0.000002 0.000001 -0.000519 -0.006679 -8.932489 -0.000518 0.007235 6.265791 -0.000001 -0.000001 -0.000005 -0.000042 0.002636 3.005854 -0.000330 0.004847 6.344395 0.000001 -0.000002 0.000001 2.546343 -5.987563 23.063913 -0.002730 0.015383 21.773009 -0.000000 -0.000001 -0.000004 8.673213 -16.457457 33.264551 -0.008739 0.026281 37.071528 -0.000000 -0.000000 0.000000 0.000000 -0.000002 0.000001 0.000000 0.000000 -0.000002 0.000000 -0.000000 -0.000002 0.000000 0.000000 -0.000002 0.000000 0.000000 -0.000002 0.000000 0.000000 -0.000002 0.000000 -0.000000 -0.000002 0.000000 0.000000 -0.000002 0.000000 0.000000 -0.000002 0.000000 0.000000 -0.000002 0.000000 -0.000000 -0.000002 -0.000001 0.000002 0.000000 -0.000001 0.000002 0.000000 -0.000001 0.000002 0.000000 
-2.422150 50.547508 -6.510616 47.608754 26.284376 -24.688444 -0.000000 0.000001 -0.000000 -99.765151 -24.988321 0.955021 108.036756 14.266085 2.119512 -9.697507 1.830714 -13.308585 -0.000001 -0.000003 -0.000000 -0.000002 0.000000 -0.000000 -102.719283 -12.956284 0.365590 86.386634 -7.282814 -0.005771 -26.909128 0.827190 -9.153286 0.000000 -0.000000 -0.000000 -0.000002 0.000002 -0.000001 23.137001 1.810055 0.135879 14.480862 0.008955 0.296553 13.765526 -0.027702 0.349042 -17.991528 -6.028376 -2.376111 -67.913432 -36.257526 -5.111533 0.000000 0.000000 0.000000 0.000000 0.000000 0.000000 0.000000 0.000000 0.000000 0.000000 0.000000 0.000000 0.000000 -0.000000 -0.000001 0.000000 0.000000 0.000000 0.000000 -0.000000 -0.000001 0.000000 0.000000 0.000000 0.000000 0.000000 0.000000 -1.148776 -6.720718 24.378321 -5.587429 -15.277596 -80.241281 0.181075 -27.192940 -0.944417 -19.402243 -15.814398 -22.212487 -9.331538 3.471358 -7.771929 -3.526411 5.992587 -11.731728 0.000003 -0.000000 0.000001 2.950637 -12.213436 7.303417 -0.001884 -0.013099 -14.886869 -0.000000 0.000003 -0.000001 -0.428348 -3.917228 -6.247954 -0.001110 -0.009771 -15.259799 0.000002 -0.000001 0.000004 3.582742 12.303599 -16.370794 -0.016405 -0.033072 -52.623507 0.000001 0.000000 -0.000001 0.000702 20.812462 -16.406965 -0.017080 -0.031977 -51.783861 -0.000003 -0.000001 0.000001 0.000000 -0.000003 -0.000000 1.173504 10.716633 -23.092914 -77.604425 -18.508612 35.502603 -0.977108 68.076270 1.239075 55.595411 21.260622 -46.455422 -4.453604 -7.293489 20.381144 0.000581 -8.684430 0.000691 -0.000000 -0.000003 -0.000001 -0.000520 -0.006682 -8.932494 -0.000523 0.007235 6.265795 -0.000000 0.000002 0.000002 -0.000042 0.002632 3.005852 -0.000330 0.004849 6.344398 -0.000001 -0.000004 -0.000001 2.546343 -5.987570 23.063915 -0.002730 0.015388 21.773012 -0.000000 0.000002 -0.000001 8.673212 -16.457465 33.264551 -0.008740 0.026279 37.071528 -0.000002 0.000000 -0.000005 -0.000001 -0.000001 0.000001 -0.000000 0.000000 0.000000 -0.000000 -0.000000 -0.000000 -0.000000 0.000000 -0.000001 -0.000000 0.000000 -0.000001 -0.000000 0.000000 0.000000 -0.000000 -0.000000 0.000000 -0.000000 0.000000 -0.000001 -0.000000 0.000000 -0.000001 -0.000000 0.000000 0.000000 -0.000000 -0.000000 0.000000 -0.000000 0.000001 -0.000000 -0.000000 0.000001 -0.000000 -0.000000 0.000001 -0.000000 
-2.699604 50.414589 -9.293903 47.838133 26.875942 -25.813633 0.000001 0.000001 -0.000001 -91.570468 -30.842300 3.698842 105.648922 19.173511 3.087104 -3.710459 1.564395 -17.431742 -0.000002 0.000001 -0.000004 0.000002 -0.000001 -0.000000 -105.384539 -11.026683 -0.447983 84.990045 -7.974997 -0.085741 -22.678842 -0.044866 -7.148103 0.000000 -0.000000 -0.000000 -0.000001 -0.000000 -0.000001 23.016880 1.554905 0.509645 14.409428 -0.004353 0.518073 13.694773 -0.057854 0.574454 -17.815485 -6.107542 -2.437773 -67.621140 -36.553277 -5.098429 0.000000 -0.000000 -0.000001 0.000000 -0.000000 -0.000001 0.000000 -0.000000 -0.000001 0.000000 -0.000000 -0.000001 0.000000 -0.000000 -0.000000 0.000000 -0.000000 -0.000001 0.000000 -0.000000 -0.000000 0.000000 -0.000000 -0.000001 0.000000 -0.000000 -0.000001 -1.140518 -6.712139 24.479671 -4.995232 -15.660246 -80.107095 0.409127 -27.032837 -0.773139 -19.522361 -15.260864 -22.709959 -9.331538 3.471360 -7.771927 -3.526406 5.992581 -11.731730 0.000003 -0.000002 0.000003 2.950637 -12.213434 7.303417 -0.001884 -0.013099 -14.886867 0.000002 0.000000 -0.000002 -0.428346 -3.917228 -6.247958 -0.001108 -0.009773 -15.259795 -0.000002 -0.000000 0.000001 3.582744 12.303595 -16.370789 -0.016408 -0.033069 -52.623510 -0.000005 0.000000 -0.000002 0.000699 20.812466 -16.406966 -0.017078 -0.031976 -51.783858 -0.000000 0.000001 0.000001 0.000002 -0.000001 -0.000000 1.160781 10.618270 -22.998949 -77.719302 -18.046996 35.134288 0.199761 67.911977 0.113282 55.560703 21.091576 -46.452769 -4.453602 -7.293486 20.381141 0.000582 -8.684425 0.000689 -0.000000 -0.000007 -0.000000 -0.000518 -0.006682 -8.932492 -0.000518 0.007236 6.265791 -0.000003 0.000002 0.000002 -0.000042 0.002632 3.005853 -0.000331 0.004855 6.344397 -0.000000 -0.000003 0.000001 2.546345 -5.987569 23.063913 -0.002732 0.015383 21.773014 -0.000001 -0.000001 -0.000000 8.673214 -16.457462 33.264551 -0.008741 0.026279 37.071531 0.000002 0.000000 -0.000001 -0.000001 -0.000001 -0.000002 0.000000 0.000000 0.000000 -0.000000 0.000000 -0.000000 0.000000 0.000000 0.000000 0.000000 0.000000 0.000000 0.000000 0.000000 0.000000 -0.000000 0.000000 0.000000 0.000000 0.000000 0.000000 0.000000 0.000000 0.000000 0.000000 0.000000 0.000000 -0.000000 0.000000 0.000000 0.000001 0.000001 -0.000001 0.000001 0.000001 -0.000001 0.000001 0.000001 -0.000001 
